<svg width="90" height="28" viewBox="0 0 1644 512" fill="none" xmlns="http://www.w3.org/2000/svg">
<g clip-path="url(#clip0_1_48)">
<rect x="512" y="512" width="512" height="512" rx="51.2" transform="rotate(-180 512 512)" fill="black"/>
<path d="M212.454 383.621L275.739 209.277C277.29 205.038 278.789 200.695 280.237 196.248C281.685 191.802 282.977 187.407 284.115 183.064C285.149 178.824 285.976 174.688 286.597 170.655C287.217 166.726 287.527 163.158 287.527 159.953C287.527 152.611 285.666 146.717 281.943 142.27C278.117 137.824 272.068 135.6 263.795 135.6C256.971 135.6 250.404 137.203 244.097 140.409C237.789 143.614 231.533 148.371 225.328 154.679C219.02 161.09 212.661 169.052 206.25 178.566C199.735 188.079 192.91 199.144 185.775 211.759L177.71 226.029L173.677 223.082L181.587 208.812C189.343 195.059 196.685 183.116 203.613 172.982C210.541 162.848 217.418 154.42 224.242 147.699C231.067 141.081 237.996 136.169 245.027 132.964C252.059 129.655 259.607 128 267.673 128C280.289 128 289.906 131.671 296.524 139.013C303.038 146.458 306.295 156.592 306.295 169.414C306.295 173.447 305.985 177.997 305.365 183.064C304.641 188.131 303.504 193.508 301.952 199.195C308.777 187.407 315.188 177.066 321.186 168.173C327.08 159.28 332.974 151.835 338.869 145.838C344.763 139.943 350.812 135.497 357.016 132.498C363.117 129.499 369.787 128 377.025 128C382.816 128 388.297 128.931 393.467 130.792C398.534 132.653 402.981 135.342 406.807 138.858C410.633 142.477 413.683 146.923 415.958 152.197C418.13 157.574 419.215 163.779 419.215 170.81C419.215 176.704 418.388 183.322 416.734 190.664C414.976 198.11 412.752 205.968 410.064 214.241C407.272 222.617 404.118 231.303 400.602 240.299C397.086 249.399 393.467 258.447 389.744 267.444C386.022 276.543 382.403 285.488 378.887 294.278C375.371 303.067 372.269 311.443 369.58 319.405C366.788 327.368 364.565 334.709 362.911 341.431C361.153 348.256 360.274 354.202 360.274 359.268C360.274 361.854 360.532 364.284 361.049 366.559C361.463 368.834 362.187 370.798 363.221 372.453C364.255 374.107 365.651 375.4 367.409 376.331C369.167 377.261 371.338 377.727 373.923 377.727C378.473 377.727 383.282 376.227 388.348 373.228C393.312 370.333 398.431 365.835 403.704 359.734C408.978 353.633 414.355 345.877 419.836 336.467C425.213 327.161 430.538 316.148 435.812 303.429L440 306.221C434.313 320.284 428.574 332.228 422.783 342.051C416.889 351.875 410.994 359.837 405.1 365.938C399.103 372.143 393.157 376.641 387.263 379.433C381.265 382.225 375.319 383.621 369.425 383.621C360.739 383.621 353.811 380.88 348.64 375.4C343.367 370.023 340.73 362.319 340.73 352.289C340.73 347.118 341.557 341.017 343.212 333.986C344.866 326.954 347.038 319.302 349.726 311.029C352.415 302.757 355.465 294.071 358.878 284.971C362.29 275.871 365.806 266.668 369.425 257.361C372.941 248.055 376.405 238.8 379.817 229.597C383.23 220.497 386.28 211.759 388.969 203.383C391.657 195.111 393.829 187.407 395.484 180.272C397.138 173.137 397.965 166.933 397.965 161.659C397.965 152.869 395.742 146.303 391.296 141.96C386.746 137.72 380.852 135.6 373.613 135.6C367.409 135.6 361.463 137.203 355.775 140.409C349.985 143.718 344.194 148.578 338.403 154.989C332.612 161.4 326.615 169.311 320.41 178.721C314.206 188.234 307.588 199.247 300.556 211.759L292.956 225.409L235.41 383.621H212.454Z" fill="white" stroke="white" stroke-width="12"/>
<path d="M157.621 317.854H134.664L174.217 209.277C175.665 205.245 177.113 201.108 178.56 196.869C180.008 192.732 181.301 188.596 182.438 184.46C183.472 180.427 184.351 176.498 185.075 172.672C185.695 168.949 186.006 165.485 186.006 162.279C186.006 155.144 184.144 149.457 180.422 145.217C176.596 140.978 170.701 138.858 162.739 138.858C155.811 138.858 149.141 140.357 142.73 143.356C136.215 146.355 129.804 150.853 123.496 156.85C117.085 162.951 110.674 170.552 104.263 179.651C97.8516 188.855 91.1819 199.557 84.2537 211.759L76.188 226.029L72 223.082L80.0657 208.812C87.6144 195.473 94.8528 183.891 101.781 174.068C108.606 164.347 115.482 156.282 122.411 149.87C129.235 143.563 136.215 138.858 143.35 135.755C150.485 132.653 158.086 131.102 166.152 131.102C172.459 131.102 178.043 132.085 182.903 134.049C187.66 135.911 191.641 138.599 194.847 142.115C198.156 145.631 200.638 149.87 202.292 154.834C203.947 159.797 204.774 165.33 204.774 171.431C204.774 176.808 204.102 182.702 202.757 189.113C201.517 195.524 199.655 202.246 197.173 209.277L157.621 317.854ZM145.212 358.493C145.212 362.112 143.971 365.214 141.489 367.799C138.904 370.385 135.802 371.677 132.183 371.677C128.563 371.677 125.513 370.385 123.031 367.799C120.446 365.318 119.153 362.267 119.153 358.648C119.153 356.89 119.515 355.184 120.239 353.529C120.86 351.978 121.79 350.634 123.031 349.497C124.169 348.359 125.565 347.428 127.219 346.705C128.77 346.084 130.476 345.774 132.338 345.774C135.957 345.774 139.007 346.963 141.489 349.341C143.971 351.823 145.212 354.874 145.212 358.493Z" fill="#EC6142" stroke="#EC6142" stroke-width="12"/>
<path d="M656.757 157.705H682.947L757.443 263.629L831.358 157.705H857.548V374.5H828.738V211.249L758.316 310.48H755.988L685.275 209.794V374.5H656.757V157.705ZM947.021 374.209L884.747 217.651H914.138L961.862 340.162L1009.29 217.651H1039.27L952.55 432.7H922.577L947.021 374.209ZM1063.34 217.651H1089.82V236.275C1097.97 222.695 1111.84 215.905 1131.44 215.905H1141.04V241.513H1127.36C1116.11 241.513 1107.09 245.005 1100.3 251.989C1093.7 258.973 1090.41 268.673 1090.41 281.089V374.5H1063.34V217.651ZM1211.06 377.992C1195.54 377.992 1182.93 373.918 1173.23 365.77C1163.53 357.428 1158.68 346.661 1158.68 333.469C1158.68 320.665 1162.85 309.995 1171.19 301.459C1179.73 292.729 1192.63 286.909 1209.89 283.999L1263.44 275.269V267.994C1263.44 259.458 1260.24 252.571 1253.83 247.333C1247.43 241.901 1239.19 239.185 1229.1 239.185C1220.18 239.185 1212.22 241.513 1205.24 246.169C1198.45 250.631 1193.4 256.645 1190.11 264.211L1166.53 251.989C1171 241.125 1179.14 232.104 1190.98 224.926C1202.81 217.748 1215.71 214.159 1229.68 214.159C1241.52 214.159 1251.99 216.487 1261.11 221.143C1270.42 225.605 1277.6 231.91 1282.64 240.058C1287.88 248.206 1290.5 257.518 1290.5 267.994V374.5H1264.02V354.13C1258.39 361.502 1250.92 367.322 1241.61 371.59C1232.49 375.858 1222.31 377.992 1211.06 377.992ZM1187.2 332.596C1187.2 338.998 1189.72 344.333 1194.76 348.601C1200 352.869 1206.5 355.003 1214.26 355.003C1223.76 355.003 1232.2 352.966 1239.58 348.892C1247.14 344.624 1252.96 338.901 1257.04 331.723C1261.3 324.545 1263.44 316.591 1263.44 307.861V297.967L1216 305.824C1196.8 309.122 1187.2 318.046 1187.2 332.596ZM1464.53 377.992C1449.01 377.992 1435.14 374.694 1422.92 368.098C1410.89 361.502 1401.48 352.384 1394.69 340.744C1387.9 329.104 1384.51 316.009 1384.51 301.459V157.705H1413.32V300.877C1413.32 315.815 1418.07 328.037 1427.58 337.543C1437.08 346.855 1449.4 351.511 1464.53 351.511C1479.66 351.511 1491.98 346.855 1501.49 337.543C1511 328.037 1515.75 315.815 1515.75 300.877V157.705H1544.56V301.459C1544.56 316.009 1541.16 329.104 1534.37 340.744C1527.58 352.384 1518.08 361.502 1505.85 368.098C1493.83 374.694 1480.05 377.992 1464.53 377.992ZM1591.42 157.705H1619.94V374.5H1591.42V157.705Z" fill="white"/>
</g>
<defs>
<clipPath id="clip0_1_48">
<rect width="1644" height="512" fill="white"/>
</clipPath>
</defs>
</svg>
