<svg width="90" height="28" viewBox="0 0 1732 512" fill="none" xmlns="http://www.w3.org/2000/svg">
<g clip-path="url(#clip0_36_42)">
<rect x="512.5" y="512" width="512" height="512" rx="51.2" transform="rotate(-180 512.5 512)" fill="black"/>
<path d="M212.954 383.621L276.239 209.277C277.79 205.038 279.289 200.695 280.737 196.248C282.185 191.802 283.477 187.407 284.615 183.064C285.649 178.824 286.476 174.688 287.097 170.655C287.717 166.726 288.027 163.158 288.027 159.953C288.027 152.611 286.166 146.717 282.443 142.27C278.617 137.824 272.568 135.6 264.295 135.6C257.471 135.6 250.904 137.203 244.597 140.409C238.289 143.614 232.033 148.371 225.828 154.679C219.52 161.09 213.161 169.052 206.75 178.566C200.235 188.079 193.41 199.144 186.275 211.759L178.21 226.029L174.177 223.082L182.087 208.812C189.843 195.059 197.185 183.116 204.113 172.982C211.041 162.848 217.918 154.42 224.742 147.699C231.567 141.081 238.496 136.169 245.527 132.964C252.559 129.655 260.107 128 268.173 128C280.789 128 290.406 131.671 297.024 139.013C303.538 146.458 306.795 156.592 306.795 169.414C306.795 173.447 306.485 177.997 305.865 183.064C305.141 188.131 304.004 193.508 302.452 199.195C309.277 187.407 315.688 177.066 321.686 168.173C327.58 159.28 333.474 151.835 339.369 145.838C345.263 139.943 351.312 135.497 357.516 132.498C363.617 129.499 370.287 128 377.525 128C383.316 128 388.797 128.931 393.967 130.792C399.034 132.653 403.481 135.342 407.307 138.858C411.133 142.477 414.183 146.923 416.458 152.197C418.63 157.574 419.715 163.779 419.715 170.81C419.715 176.704 418.888 183.322 417.234 190.664C415.476 198.11 413.252 205.968 410.564 214.241C407.772 222.617 404.618 231.303 401.102 240.299C397.586 249.399 393.967 258.447 390.244 267.444C386.522 276.543 382.903 285.488 379.387 294.278C375.871 303.067 372.769 311.443 370.08 319.405C367.288 327.368 365.065 334.709 363.411 341.431C361.653 348.256 360.774 354.202 360.774 359.268C360.774 361.854 361.032 364.284 361.549 366.559C361.963 368.834 362.687 370.798 363.721 372.453C364.755 374.107 366.151 375.4 367.909 376.331C369.667 377.261 371.838 377.727 374.423 377.727C378.973 377.727 383.782 376.227 388.848 373.228C393.812 370.333 398.931 365.835 404.204 359.734C409.478 353.633 414.855 345.877 420.336 336.467C425.713 327.161 431.038 316.148 436.312 303.429L440.5 306.221C434.813 320.284 429.074 332.228 423.283 342.051C417.389 351.875 411.494 359.837 405.6 365.938C399.603 372.143 393.657 376.641 387.763 379.433C381.765 382.225 375.819 383.621 369.925 383.621C361.239 383.621 354.311 380.88 349.14 375.4C343.867 370.023 341.23 362.319 341.23 352.289C341.23 347.118 342.057 341.017 343.712 333.986C345.366 326.954 347.538 319.302 350.226 311.029C352.915 302.757 355.965 294.071 359.378 284.971C362.79 275.871 366.306 266.668 369.925 257.361C373.441 248.055 376.905 238.8 380.317 229.597C383.73 220.497 386.78 211.759 389.469 203.383C392.157 195.111 394.329 187.407 395.984 180.272C397.638 173.137 398.465 166.933 398.465 161.659C398.465 152.869 396.242 146.303 391.796 141.96C387.246 137.72 381.352 135.6 374.113 135.6C367.909 135.6 361.963 137.203 356.275 140.409C350.485 143.718 344.694 148.578 338.903 154.989C333.112 161.4 327.115 169.311 320.91 178.721C314.706 188.234 308.088 199.247 301.056 211.759L293.456 225.409L235.91 383.621H212.954Z" fill="white" stroke="white" stroke-width="12"/>
<path d="M158.121 317.854H135.164L174.717 209.277C176.165 205.245 177.613 201.108 179.06 196.869C180.508 192.732 181.801 188.596 182.938 184.46C183.972 180.427 184.851 176.498 185.575 172.672C186.195 168.949 186.506 165.485 186.506 162.279C186.506 155.144 184.644 149.457 180.922 145.217C177.096 140.977 171.201 138.858 163.239 138.858C156.311 138.858 149.641 140.357 143.23 143.356C136.715 146.355 130.304 150.853 123.996 156.85C117.585 162.951 111.174 170.552 104.763 179.651C98.3516 188.855 91.6819 199.557 84.7537 211.759L76.688 226.029L72.5 223.082L80.5657 208.812C88.1144 195.473 95.3528 183.891 102.281 174.068C109.106 164.347 115.982 156.282 122.911 149.87C129.735 143.563 136.715 138.858 143.85 135.755C150.985 132.653 158.586 131.102 166.652 131.102C172.959 131.102 178.543 132.085 183.403 134.049C188.16 135.911 192.141 138.599 195.347 142.115C198.656 145.631 201.138 149.87 202.792 154.834C204.447 159.797 205.274 165.33 205.274 171.431C205.274 176.808 204.602 182.702 203.257 189.113C202.017 195.524 200.155 202.246 197.673 209.277L158.121 317.854ZM145.712 358.493C145.712 362.112 144.471 365.214 141.989 367.799C139.404 370.385 136.302 371.677 132.683 371.677C129.063 371.677 126.013 370.385 123.531 367.799C120.946 365.318 119.653 362.267 119.653 358.648C119.653 356.89 120.015 355.184 120.739 353.529C121.36 351.978 122.29 350.634 123.531 349.497C124.669 348.359 126.065 347.428 127.719 346.705C129.27 346.084 130.976 345.774 132.838 345.774C136.457 345.774 139.507 346.963 141.989 349.341C144.471 351.823 145.712 354.874 145.712 358.493Z" fill="#EC6142" stroke="#EC6142" stroke-width="12"/>
<path d="M656.957 157.705H683.147L757.643 263.629L831.557 157.705H857.747V374.5H828.938V211.249L758.516 310.48H756.188L685.475 209.794V374.5H656.957V157.705ZM961.771 374.209L899.497 217.651H928.888L976.612 340.162L1024.04 217.651H1054.02L967.3 432.7H937.327L961.771 374.209ZM1092.64 217.651H1119.12V236.275C1127.27 222.695 1141.14 215.905 1160.74 215.905H1170.34V241.513H1156.66C1145.41 241.513 1136.39 245.005 1129.6 251.989C1123 258.973 1119.71 268.673 1119.71 281.089V374.5H1092.64V217.651ZM1254.91 377.992C1239.39 377.992 1226.78 373.918 1217.08 365.77C1207.38 357.428 1202.53 346.661 1202.53 333.469C1202.53 320.665 1206.7 309.995 1215.04 301.459C1223.58 292.729 1236.48 286.909 1253.74 283.999L1307.29 275.269V267.994C1307.29 259.458 1304.09 252.571 1297.68 247.333C1291.28 241.901 1283.04 239.185 1272.95 239.185C1264.03 239.185 1256.07 241.513 1249.09 246.169C1242.3 250.631 1237.25 256.645 1233.96 264.211L1210.38 251.989C1214.85 241.125 1222.99 232.104 1234.83 224.926C1246.66 217.748 1259.56 214.159 1273.53 214.159C1285.37 214.159 1295.84 216.487 1304.96 221.143C1314.27 225.605 1321.45 231.91 1326.49 240.058C1331.73 248.206 1334.35 257.518 1334.35 267.994V374.5H1307.87V354.13C1302.24 361.502 1294.77 367.322 1285.46 371.59C1276.34 375.858 1266.16 377.992 1254.91 377.992ZM1231.05 332.596C1231.05 338.998 1233.57 344.333 1238.61 348.601C1243.85 352.869 1250.35 355.003 1258.11 355.003C1267.61 355.003 1276.05 352.966 1283.43 348.892C1290.99 344.624 1296.81 338.901 1300.89 331.723C1305.15 324.545 1307.29 316.591 1307.29 307.861V297.967L1259.85 305.824C1240.65 309.122 1231.05 318.046 1231.05 332.596ZM1537.48 377.992C1521.96 377.992 1508.09 374.694 1495.87 368.098C1483.84 361.502 1474.43 352.384 1467.64 340.744C1460.85 329.104 1457.46 316.009 1457.46 301.459V157.705H1486.27V300.877C1486.27 315.815 1491.02 328.037 1500.53 337.543C1510.03 346.855 1522.35 351.511 1537.48 351.511C1552.61 351.511 1564.93 346.855 1574.44 337.543C1583.95 328.037 1588.7 315.815 1588.7 300.877V157.705H1617.51V301.459C1617.51 316.009 1614.11 329.104 1607.32 340.744C1600.53 352.384 1591.03 361.502 1578.8 368.098C1566.78 374.694 1553 377.992 1537.48 377.992ZM1678.92 157.705H1707.44V374.5H1678.92V157.705Z" fill="black"/>
</g>
<defs>
<clipPath id="clip0_36_42">
<rect width="1732" height="512" fill="white"/>
</clipPath>
</defs>
</svg>
