<svg width="180" height="48" viewBox="0 0 1920 512" fill="none" xmlns="http://www.w3.org/2000/svg">
<path d="M705.937 371V116.75H742.687L824.062 300.5L907.687 116.75H940.687V371H917.812V149L834.937 327.5H811.687L730.312 148.25V371H705.937ZM1040.7 360.125L972.447 192.875H997.947C1000.2 198.625 1003.45 207.125 1007.7 218.375C1008.45 220.125 1011.7 228.5 1017.45 243.5C1023.2 258.5 1027.95 270.625 1031.7 279.875C1035.45 289.375 1039.82 300.75 1044.82 314C1050.07 327 1052.82 333.75 1053.07 334.25C1074.57 279.25 1092.95 232.125 1108.2 192.875H1132.57C1128.57 203.375 1117.07 232.125 1098.07 279.125C1081.57 319.875 1071.57 344.875 1068.07 354.125C1061.32 372.375 1054.07 387.5 1046.32 399.5C1038.82 411.5 1029.07 419.375 1017.07 423.125C1010.82 425.375 1003.82 426.5 996.072 426.5C989.822 426.5 983.572 425.75 977.322 424.25L980.322 404.375C985.072 405.375 990.197 405.875 995.697 405.875C1014.95 405.875 1028.57 394.375 1036.57 371.375L1040.7 360.125ZM1183.21 192.875V226.25C1186.46 218.75 1191.08 212.25 1197.08 206.75C1203.08 201.25 1209.46 197.5 1216.21 195.5C1222.21 193.75 1228.83 192.875 1236.08 192.875V215.375C1216.83 215.375 1203.21 221.875 1195.21 234.875C1187.71 246.625 1183.96 261.125 1183.96 278.375V371H1159.21V192.875H1183.21ZM1368.69 350.75C1348.69 367 1327.44 375.125 1304.94 375.125C1289.69 375.125 1277.19 371 1267.44 362.75C1257.94 354.5 1253.19 343 1253.19 328.25C1253.19 317.25 1256.44 307.375 1262.94 298.625C1267.19 292.875 1275.94 287.25 1289.19 281.75C1296.69 279 1309.32 276 1327.07 272.75C1330.07 272 1337.69 270.75 1349.94 269L1367.19 266.75V259.25C1367.19 240 1364.07 226.75 1357.82 219.5C1351.57 212 1340.69 208.25 1325.19 208.25C1303.94 208.25 1287.32 215.75 1275.32 230.75C1275.32 230.5 1270.32 225.75 1260.32 216.5C1274.82 198.25 1296.94 189.125 1326.69 189.125C1370.19 189.125 1391.94 210.625 1391.94 253.625V371H1371.32L1368.69 350.75ZM1367.19 282.875L1349.94 285.875C1331.19 289.125 1317.82 291.625 1309.82 293.375C1299.57 296.125 1291.32 300 1285.07 305C1279.32 309.5 1276.44 316.125 1276.44 324.875C1276.44 347.125 1287.44 358.25 1309.44 358.25C1327.94 358.25 1347.19 349.75 1367.19 332.75V282.875ZM1514.43 116.375H1542.18V267.125C1542.18 288.875 1544.81 306.25 1550.06 319.25C1555.56 334.25 1566.06 344.375 1581.56 349.625C1590.31 352.375 1600.06 353.75 1610.81 353.75C1632.06 353.75 1648.18 348.5 1659.18 338C1668.68 329 1674.68 314.875 1677.18 295.625C1678.18 288.375 1678.68 278.875 1678.68 267.125V116.375H1705.68V269.75C1705.68 306.25 1697.93 333 1682.43 350C1666.93 366.75 1642.68 375.125 1609.68 375.125C1577.18 375.125 1553.18 366.75 1537.68 350C1522.18 333.25 1514.43 307 1514.43 271.25V116.375ZM1780.69 371H1755.57V116.375H1780.69V371Z" fill="black"/>
<path d="M168 64V244L264 280V184L360 220L456 172L168 64Z" fill="black"/>
<path d="M456 328L552 292V136L456 172V328Z" fill="black"/>
<path d="M390 448L168 364V268L390 352L552 292V388L390 448Z" fill="#E54D2E"/>
</svg>
